<svg height="512" width="512" xmlns="http://www.w3.org/2000/svg"><path d="M502 22.82H349.534c-5.523 0-10 4.478-10 10s4.477 10 10 10H492v282.51H320.918l20.324-22.07H460.57c5.523 0 10-4.478 10-10V74.899c0-5.522-4.477-10-10-10H153.01c-5.523 0-10 4.478-10 10v63.351c-7.731-.186-15.529.429-23.12 1.903V42.82h141.58c5.523 0 10-4.478 10-10s-4.477-10-10-10H109.89c-5.523 0-10 4.478-10 10v113.697c-11.655 5.315-20.12 12.398-26.013 18.841-12.375 13.531-16.395 27.321-16.56 27.901-1.78 6.26 3.108 12.735 9.619 12.735h5.742c-.456 14.466 3.066 28.877 4.317 33.493v10.863c0 .13.002.259.007.389.877 22.546 12.238 42.054 29.125 53.619l-3.427 26.001-45.515 10.927c-.203.049-.403.104-.603.165-30.78 9.458-52.641 37.413-54.398 69.562l-.01.226-2.17 67.62A9.997 9.997 0 0010 489.18h208.22c5.523 0 10-4.478 10-10v-35.19a30.682 30.682 0 017.074-19.574l52.325-62.929 14.879-16.157H502c5.523 0 10-4.478 10-10V32.82c0-5.522-4.477-10-10-10zM279.877 340.371l-19.739-20.177 59.015-51.335a9.997 9.997 0 003.27-5.727c.535-2.884-.034-5.444 2.279-7.822l11.122-11.412c2.844-2.921 7.733-2.991 10.667-.137l11.412 11.122c2.908 2.833 2.975 7.757.137 10.668l-11.125 11.414c-1.51 1.55-3.638 2.355-5.792 2.25a9.979 9.979 0 00-7.888 3.21zm-97.659-10.361l-4.522-25.183a65.857 65.857 0 002.256-1.567h69.177l-30.415 24.732a9.473 9.473 0 01-5.834 2.018zM163.01 84.899h287.56v198.36h-81.86l3.657-3.753a27.685 27.685 0 004.53-6.164c5.778-10.691 3.667-24.308-5.036-32.787l-11.414-11.121c-10.722-10.442-28.441-10.281-38.951.506l-11.122 11.414c-4.004 4.11-6.642 9.477-7.494 15.148l-30.76 26.757h-73.791c5.887-9.911 9.043-21.382 9.043-32.909v-13.925c16.977-39.612-2.132-84.091-44.362-95.391zm-33.966 74.047c5.228-.656 10.536-.891 15.798-.602 27.486 1.563 50.378 21.456 48.967 50.151-7.238-7.075-17.198-11.153-27.322-11.153h-19.983c-8.358 0-10.716-9.971-10.94-11.021-1.593-8.252-12.557-10.884-17.717-4.239l-25.011 32.204c-.411-5.516-.309-11.185.835-15.958 1.629-6.791-4.036-12.602-10.664-12.332 7.034-10.376 20.82-23.813 46.037-27.05zm-32.05 82.59l26.988-34.75c4.92 5.852 12.229 10.555 22.521 10.555h19.983a19.086 19.086 0 0117.401 11.278l3.481 7.783v13.948c0 24.274-20.934 45.189-45.187 45.189-24.802 0-44.16-21.204-45.188-45.391v-8.612zm42.023 73.923a64.645 64.645 0 0019.879-2.147l4.193 23.35c-11.328 8.887-29.866 9.241-41.031-.11l3.069-23.289c4.529 1.25 9.198 1.966 13.89 2.196zm80.899 96.171a50.715 50.715 0 00-11.696 32.36v25.189H72.935v-45.204c0-5.522-4.477-10-10-10s-10 4.478-10 10v45.204H20.326l1.835-57.182c1.32-23.304 17.742-44.361 40.01-51.341l44.354-10.647c9.43 7.759 21.065 12.789 33.33 13.395 13.442.664 28.466-4.1 38.353-13.395h34.672c6.558-.068 13.025-2.229 18.198-6.293l13.621-10.703 21.939 22.426z"/><path d="M315.099 27.269c-4.919-7.515-16.855-4.698-18.196 4.084-1.378 9.025 9.667 14.94 16.475 8.983 3.728-3.262 4.468-8.951 1.721-13.067zM211.186 139.019h202.411c5.523 0 10-4.478 10-10s-4.477-10-10-10H211.186c-5.523 0-10 4.478-10 10s4.477 10 10 10zM413.597 167.62h-88.885c-5.523 0-10 4.478-10 10s4.477 10 10 10h88.885c5.523 0 10-4.478 10-10s-4.477-10-10-10z"/></svg>