<svg height="512" width="512" xmlns="http://www.w3.org/2000/svg"><path d="M452 190.001c0-6.799-1.485-13.618-4.329-20 2.844-6.382 4.329-13.201 4.329-20 0-24.15-17.213-44.357-40.014-48.998.009-.335.014-.669.014-1.002 0-22.056-17.944-40-40-40-11.934 0-22.665 5.254-30 13.569-7.335-8.315-18.066-13.569-30-13.569-22.056 0-40 17.944-40 40 0 .333.005.667.014 1.002C249.213 105.643 232 125.85 232 150.001c0 6.799 1.485 13.618 4.329 20-2.844 6.382-4.329 13.201-4.329 20 0 24.15 17.213 44.357 40.014 48.998-.009.335-.014.669-.014 1.002 0 22.056 17.944 40 40 40 11.934 0 22.665-5.254 30-13.569 7.335 8.315 18.066 13.569 30 13.569 22.056 0 40-17.944 40-40 0-.333-.005-.667-.014-1.002 22.8-4.641 40.014-24.848 40.014-48.998zm-140 70c-11.028 0-20-8.972-20-20 0-2.155.425-4.371 1.298-6.774 2.378-6.541-2.458-14.518-11.632-13.228C265.277 219.82 252 206.431 252 190.001c0-3.402.625-6.748 1.839-10H262c5.523 0 10-4.478 10-10s-4.477-10-10-10h-8.161c-1.214-3.252-1.839-6.598-1.839-10 0-16.431 13.277-29.819 29.667-29.998 9.132 1.284 14.015-6.673 11.632-13.228-.874-2.403-1.298-4.619-1.298-6.774 0-11.028 8.972-20 20-20s20 8.972 20 20v140c-.001 11.028-8.973 20-20.001 20zm90.333-40.002c-9.121-1.283-14.018 6.664-11.632 13.228.874 2.403 1.298 4.619 1.298 6.774 0 11.028-8.972 20-20 20s-20-8.972-20-20v-140c0-11.028 8.972-20 20-20s20 8.972 20 20c0 2.155-.425 4.371-1.298 6.774-2.37 6.518 2.437 14.521 11.632 13.228 16.39.178 29.667 13.567 29.667 29.998 0 3.402-.625 6.748-1.839 10H422c-5.523 0-10 4.478-10 10s4.477 10 10 10h8.161c1.214 3.252 1.839 6.598 1.839 10 0 16.43-13.277 29.819-29.667 29.998z"/><path d="M312 120.001c-5.523 0-10 4.478-10 10 0 5.514-4.486 10-10 10-5.523 0-10 4.478-10 10s4.477 10 10 10c16.542 0 30-13.458 30-30 0-5.523-4.477-10-10-10zM292 180.001c-5.523 0-10 4.478-10 10s4.477 10 10 10c5.514 0 10 4.486 10 10 0 5.522 4.477 10 10 10s10-4.478 10-10c0-16.542-13.458-30-30-30zM392 140.001c-5.514 0-10-4.486-10-10 0-5.522-4.477-10-10-10s-10 4.478-10 10c0 16.542 13.458 30 30 30 5.523 0 10-4.478 10-10s-4.477-10-10-10zM392 180.001c-16.542 0-30 13.458-30 30 0 5.522 4.477 10 10 10s10-4.478 10-10c0-5.514 4.486-10 10-10 5.523 0 10-4.478 10-10s-4.477-10-10-10z"/><path d="M342 .001c-93.738 0-170 76.262-170 170 0 42.051 15.179 81.772 42.931 112.928l-37.366 37.374-21.214-21.221a10.002 10.002 0 00-7.071-2.93h-.001a10.001 10.001 0 00-7.071 2.929L2.929 438.359c-3.905 3.905-3.905 10.237 0 14.143l56.57 56.57c3.904 3.903 10.238 3.904 14.143 0l139.28-139.28c3.902-3.905 3.905-10.238 0-14.143l-21.21-21.209 37.362-37.37C260.227 324.821 299.948 340 342.001 340c28.68 0 57.035-7.278 81.999-21.047 4.836-2.668 6.594-8.75 3.927-13.587-2.667-4.836-8.751-6.591-13.586-3.927C392.326 313.582 367.312 320 342.001 320c-82.913 0-150-67.1-150-150 0-82.71 67.29-150 150-150s150 67.29 150 150c0 25.313-6.418 50.327-18.561 72.34-2.667 4.836-.91 10.919 3.926 13.586 4.837 2.669 10.919.911 13.586-3.926C504.722 227.036 512 198.682 512 170 512 76.262 435.738.001 342 .001zM66.57 487.858L24.142 445.43l125.137-125.136 42.429 42.426z"/><circle cx="455" cy="283.001" r="10"/></svg>